<svg xmlns="http://www.w3.org/2000/svg" style="display: none;">
  <!-- 麦克风图标 -->
  <symbol id="mic-icon" viewBox="0 0 24 24">
    <path d="M12 14c1.66 0 3-1.34 3-3V5c0-1.66-1.34-3-3-3S9 3.34 9 5v6c0 1.66 1.34 3 3 3zm5-3c0 2.76-2.24 5-5 5s-5-2.24-5-5H5c0 3.53 2.61 6.43 6 6.92V21h2v-3.08c3.39-.49 6-3.39 6-6.92h-2z"/>
  </symbol>

  <!-- 完成图标（☑️） -->
  <symbol id="check-icon" viewBox="0 0 24 24">
    <path d="M9 16.17L4.83 12l-1.42 1.41L9 19 21 7l-1.41-1.41L9 16.17z"/>
  </symbol>

  <!-- 复制图标 -->
  <symbol id="copy-icon" viewBox="0 0 24 24">
    <path d="M19 21H8V7h11m0-2H8a2 2 0 0 0-2 2v14a2 2 0 0 0 2 2h11a2 2 0 0 0 2-2V7a2 2 0 0 0-2-2m-3-4H4a2 2 0 0 0-2 2v14h2V3h12V1z"/>
  </symbol>
</svg>